# xmcd
#
# Track frame offsets: 
#        150
#        41337
#        76216
#        115625
#        159118
#        203650
#        245034
#        293595
#
# Disc length: 4469 seconds
#
# Revision: 2
# Processed by: cddbd v1.5.2PL0 Copyright (c) Steve Scherf et al.
# Submitted via: ExactAudioCopyFreeDBPlugin 1.0
#
DISCID=58117308
DTITLE=Various Artist - Philadelphia International Classics:  The Tom
DTITLE=Moulton Remixes
DYEAR=2012
DGENRE=Soul
TTITLE0=Archie Bell and The Drells - Where Will You Go When The Party's 
TTITLE0=Over (Tom Moulton remix)
TTITLE1=People's Choice - Jam Jam Jam (All Night Long) (Tom Moulton re
TTITLE1=mix)
TTITLE2=Teddy Pendergrass - I Don't Love You Anymore (Tom Moulton remi
TTITLE2=x)
TTITLE3=Lou Rawls - See You When I Git There (Tom Moulton remix)
TTITLE4=The O'Jays - This Time Baby (Tom Moulton remix)
TTITLE5=The Futures - Party Time Man (Tom Moulton remix)
TTITLE6=Jean Carn - My Love Don't Come Easy (Tom Moulton remix)
TTITLE7=The Jones Girls - Nights Over Egypt (Tom Moulton remix)
EXTD=
EXTT0=
EXTT1=
EXTT2=
EXTT3=
EXTT4=
EXTT5=
EXTT6=
EXTT7=
PLAYORDER=
